# xmcd CD database file
#
# Track frame offsets:
#	150
#	22067
#	41332
#	57545
#	84470
#	107047
#	129822
#	152517
#	176690
#	202215
#	220602
#
# Disc length: 3204 seconds
#
# Revision: 0
# Processed by: cddbd v1.5.1PL0 Copyright (c) Steve Scherf et al.
# Submitted via: CDex 1.51
#
DISCID=910c820b
DTITLE=小泉明子 - サファイア
DYEAR=2004
DGENRE=Jazz
TTITLE0=K2
TTITLE1=ヴェルベーナ
TTITLE2=黒いオルフェ
TTITLE3=アクエリアス
TTITLE4=ストレンジャー・イン・パラダイス
TTITLE5=ルック・オブ・ラブ
TTITLE6=男と女
TTITLE7=グリオ
TTITLE8=マイ・ウイル
TTITLE9=イレ・アイエ
TTITLE10=荘厳な道
EXTD=YEAR: 2004
EXTT0=
EXTT1=
EXTT2=
EXTT3=
EXTT4=
EXTT5=
EXTT6=
EXTT7=
EXTT8=
EXTT9=
EXTT10=
PLAYORDER=
